<svg xmlns="http://www.w3.org/2000/svg" width="76" height="52.561" viewBox="0 0 76 52.561"><defs><style>.a{fill:#3b4043;}</style></defs><path class="a" d="M435.331,377.869l-7.4,7.4.688.715c-.49.4-.986.782-1.468,1.125a11.526,11.526,0,0,1-2.029,1.209,1.28,1.28,0,0,1-.443.052,16.045,16.045,0,0,1-2.058-.243,21.049,21.049,0,0,0-3.179-.283,12.8,12.8,0,0,0-3.444.461,12.908,12.908,0,0,0-3.436-.46,20.745,20.745,0,0,0-3.181.283,16.016,16.016,0,0,1-2.057.243,1.21,1.21,0,0,1-.438-.052A11.993,11.993,0,0,1,404.7,387c-.433-.315-.875-.66-1.313-1.015l.687-.713-7.4-7.4L378,397.205l7.4,7.4,2.167-2.244,4.782,4.173a10.8,10.8,0,0,0,.677,2.273c.19.457.4.9.61,1.309a4.864,4.864,0,0,0,3.291,7.317,4.877,4.877,0,0,0,4.884,4.83c.063,0,.127-.01.189-.012a4.871,4.871,0,0,0,4.847,4.309c.162,0,.322-.017.485-.033a4.445,4.445,0,0,0,6.754,3.234l2.218-1.38a8.92,8.92,0,0,0,1.378.733,7.413,7.413,0,0,0,2.874.611,5.65,5.65,0,0,0,3.277-1A6.055,6.055,0,0,0,425.5,426.9c.07,0,.126.015.2.016a4.97,4.97,0,0,0,1.464-.224,7.507,7.507,0,0,0,1.537-.688,5.529,5.529,0,0,0,2.406-2.676,5.6,5.6,0,0,0,.194-.563,4.387,4.387,0,0,0,.869-.372,4.977,4.977,0,0,0,2.019-2.291,6.444,6.444,0,0,0,.572-2.651c0-.086-.011-.169-.015-.254a6.15,6.15,0,0,0,1.714-1.06A5.533,5.533,0,0,0,437.7,414.6a4.2,4.2,0,0,0,.525-1.986,3.514,3.514,0,0,0-.31-1.45,3.615,3.615,0,0,0-.256-.426,17.563,17.563,0,0,0,1.072-2.249,10.229,10.229,0,0,0,.547-1.95l4.986-4.352,2.337,2.42,7.4-7.4Zm-36.737,35.844-.086.054a1.328,1.328,0,0,1-1.4-2.254l2.932-1.822a1.323,1.323,0,0,1,1.828.428l1.51-.938-1.51.939a1.313,1.313,0,0,1,.2.7,1.34,1.34,0,0,1-.317.854l-2.518,1.565A4.917,4.917,0,0,0,398.595,413.713Zm3.914,4.8a1.305,1.305,0,0,1-.7.2,1.319,1.319,0,0,1-1.016-2.175l2.519-1.568a4.842,4.842,0,0,0,.631-.477l.092-.056a1.3,1.3,0,0,1,.7-.2,1.328,1.328,0,0,1,.7,2.456Zm7.965,2.477-2.928,1.82a1.3,1.3,0,0,1-.7.2,1.328,1.328,0,0,1-.7-2.455l2.932-1.822a1.292,1.292,0,0,1,.7-.2,1.326,1.326,0,0,1,.7,2.455Zm4.539,2.969a.863.863,0,0,1,.134.465.891.891,0,0,1-.423.759l-2.514,1.562a.855.855,0,0,1-.467.134.888.888,0,0,1-.473-1.642h0l2.517-1.565a.861.861,0,0,1,.467-.135.883.883,0,0,1,.756.42l1.511-.936Zm19.552-11.038a2.279,2.279,0,0,1-.8.8,2.358,2.358,0,0,1-1.221.365,1.669,1.669,0,0,0-.429.062,4.9,4.9,0,0,1-.756-.232,7.916,7.916,0,0,1-2.007-1.2c-.256-.206-.458-.392-.594-.521l-.15-.148-.033-.034,0,0h0a1.334,1.334,0,0,0-1.963,1.806,11.449,11.449,0,0,0,1.812,1.531,9.887,9.887,0,0,0,1.965,1.057c.175.069.357.132.544.191a1.724,1.724,0,0,0,.2.333l0,0a1.46,1.46,0,0,1,.076.531,2.787,2.787,0,0,1-.428,1.489,1.18,1.18,0,0,1-.378.367.945.945,0,0,1-.495.119h-.086c-.05,0-.1.006-.148.008h0a5.474,5.474,0,0,1-3.027-1.034,7.607,7.607,0,0,1-.927-.741c-.105-.1-.186-.181-.236-.232l-.052-.056-.008-.011h0a1.333,1.333,0,0,0-2.012,1.75h0a9.526,9.526,0,0,0,1.738,1.5,8.891,8.891,0,0,0,2.717,1.255c-.012.031-.019.063-.034.094a1.932,1.932,0,0,1-.886.961,4.046,4.046,0,0,1-.816.375,1.335,1.335,0,0,1-.423.068,4.6,4.6,0,0,1-.864-.124,1.507,1.507,0,0,0-.235-.027c-.029-.012-.057-.023-.088-.039a7.666,7.666,0,0,1-1.377-.9c-.2-.158-.368-.3-.484-.406l-.131-.118-.03-.029-.006,0a1.334,1.334,0,1,0-1.843,1.928,14.008,14.008,0,0,0,1.376,1.128c.14.1.294.2.449.3a2.575,2.575,0,0,1-.666.743,2.094,2.094,0,0,1-1.239.362,3.9,3.9,0,0,1-1.493-.331,5.3,5.3,0,0,1-.515-.27,4.373,4.373,0,0,0,.154-1.15A4.434,4.434,0,0,0,414.65,420c0-.049.008-.1.008-.146a4.875,4.875,0,0,0-.735-2.574v0a4.876,4.876,0,0,0-4.151-2.309c-.063,0-.127.011-.19.013a4.874,4.874,0,0,0-.7-2h0a4.861,4.861,0,0,0-3.268-2.217,4.874,4.874,0,0,0-.733-2.525h0a4.882,4.882,0,0,0-6.727-1.572l-1.713,1.065c-.041-.094-.093-.186-.13-.28a6.138,6.138,0,0,1-.506-1.9l-.04-.751-5.73-5L400.9,388.55c.556.455,1.125.906,1.709,1.329a15.222,15.222,0,0,0,2.908,1.726,4.669,4.669,0,0,0,1.8.325,18.1,18.1,0,0,0,2.586-.284c.056-.009.113-.015.17-.023a28.587,28.587,0,0,0-3.087,3.136c-.735.863-1.356,1.676-1.847,2.34s-.859,1.193-1.024,1.4a5.851,5.851,0,0,0-1.164,3.573,5.51,5.51,0,0,0,1.124,3.427,4.458,4.458,0,0,0,1.579,1.262,4.93,4.93,0,0,0,2.132.463,7.769,7.769,0,0,0,2.985-.672,55.381,55.381,0,0,1,9.241-2.893c1.277-.284,2.345-.483,3.09-.607l.373-.062,11.173,9.632,0,0,0,.006A.722.722,0,0,1,434.565,412.916Zm1.293-8.115-.039.751a5.713,5.713,0,0,1-.412,1.663c-.124.328-.276.659-.435.985l-9.785-8.435a1.787,1.787,0,0,0-1.386-.417,61.805,61.805,0,0,0-14.406,3.928,4.2,4.2,0,0,1-1.6.391,1.337,1.337,0,0,1-.6-.115,1,1,0,0,1-.463-.477,2.255,2.255,0,0,1-.216-1,2.346,2.346,0,0,1,.413-1.388c.277-.357.615-.845,1.081-1.475a35.085,35.085,0,0,1,2.75-3.328,18.011,18.011,0,0,1,3.78-3.122,9.241,9.241,0,0,1,4.9-1.359,17.481,17.481,0,0,1,2.652.243,18.019,18.019,0,0,0,2.585.283,4.678,4.678,0,0,0,1.8-.321l.008,0a15.222,15.222,0,0,0,2.908-1.726c.581-.42,1.152-.874,1.705-1.328l10.693,11.074Z" transform="translate(-378 -377.869)"/></svg>