<svg xmlns="http://www.w3.org/2000/svg" width="16.627" height="16.217" viewBox="0 0 16.627 16.217"><defs><style>.a{fill:#98a6b5;fill-rule:evenodd;}</style></defs><path class="a" d="M144.633,107.44a8.315,8.315,0,0,0-2.627,16.2c.416.076.568-.18.568-.4,0-.2-.007-.72-.011-1.414-2.312.5-2.8-1.114-2.8-1.114a2.2,2.2,0,0,0-.923-1.216c-.755-.516.057-.505.057-.505a1.745,1.745,0,0,1,1.273.856,1.77,1.77,0,0,0,2.42.691,1.777,1.777,0,0,1,.528-1.112c-1.846-.21-3.787-.923-3.787-4.109a3.214,3.214,0,0,1,.856-2.231,2.987,2.987,0,0,1,.082-2.2s.7-.224,2.286.852a7.884,7.884,0,0,1,4.163,0c1.587-1.076,2.284-.852,2.284-.852a2.988,2.988,0,0,1,.083,2.2,3.208,3.208,0,0,1,.854,2.231c0,3.194-1.944,3.9-3.8,4.1a1.985,1.985,0,0,1,.564,1.54c0,1.112-.01,2.008-.01,2.281,0,.222.15.481.572.4a8.315,8.315,0,0,0-2.633-16.2Z" transform="translate(-136.32 -107.44)"/></svg>