<svg xmlns="http://www.w3.org/2000/svg" width="50.506" height="50.506" viewBox="0 0 50.506 50.506"><defs><style>.a{fill:#00b900;}.b{fill:#fff;}</style></defs><circle class="a" cx="25.253" cy="25.253" r="25.253" transform="translate(0 0)"/><g transform="translate(8.577 10.206)"><path class="b" d="M414.207,275.108c0-7.422-7.44-13.46-16.586-13.46s-16.586,6.038-16.586,13.46c0,6.654,5.9,12.226,13.871,13.28.54.116,1.275.356,1.461.818a3.406,3.406,0,0,1,.054,1.5s-.195,1.17-.237,1.42c-.072.419-.333,1.64,1.436.894s9.552-5.625,13.032-9.63h0a11.975,11.975,0,0,0,3.555-8.282" transform="translate(-381.035 -261.648)"/><g transform="translate(5.441 9.873)"><path class="a" d="M410.746,285.4h-1.164a.323.323,0,0,0-.323.322v7.227a.323.323,0,0,0,.323.322h1.164a.323.323,0,0,0,.323-.322v-7.227a.323.323,0,0,0-.323-.322" transform="translate(-402.97 -285.405)"/><path class="a" d="M422.889,285.4h-1.163a.323.323,0,0,0-.323.322v4.294l-3.312-4.473a.314.314,0,0,0-.025-.033l0,0-.02-.02-.006-.005-.017-.015-.008-.007-.017-.011-.01-.006-.017-.01-.01-.005-.019-.008-.01,0-.019-.006-.011,0-.019,0-.013,0-.017,0h-1.191a.323.323,0,0,0-.323.322v7.227a.323.323,0,0,0,.323.322h1.163a.323.323,0,0,0,.323-.322v-4.292l3.316,4.478a.321.321,0,0,0,.082.079l0,0,.02.012.009.005.016.007.015.007.01,0,.022.007h0a.318.318,0,0,0,.083.011h1.163a.323.323,0,0,0,.323-.322v-7.227a.323.323,0,0,0-.323-.322" transform="translate(-407.105 -285.405)"/><path class="a" d="M399.1,291.467h-3.161v-5.739a.323.323,0,0,0-.322-.323H394.45a.323.323,0,0,0-.323.323v7.226h0a.322.322,0,0,0,.091.223l0,.005,0,0a.321.321,0,0,0,.223.09H399.1a.323.323,0,0,0,.322-.323v-1.164a.323.323,0,0,0-.322-.323" transform="translate(-394.127 -285.405)"/><path class="a" d="M440.573,287.215a.323.323,0,0,0,.323-.323v-1.163a.323.323,0,0,0-.323-.323h-4.648a.321.321,0,0,0-.224.091l0,0-.005.005a.324.324,0,0,0-.089.223h0v7.226h0a.322.322,0,0,0,.09.223l0,.005,0,0a.322.322,0,0,0,.223.09h4.648a.323.323,0,0,0,.323-.323v-1.164a.323.323,0,0,0-.323-.323h-3.161v-1.222h3.161a.323.323,0,0,0,.323-.323V288.76a.323.323,0,0,0-.323-.323h-3.161v-1.221Z" transform="translate(-418.366 -285.405)"/></g></g></svg>